<?xml version="1.0" standalone="no"?>
<!DOCTYPE svg PUBLIC "-//W3C//DTD SVG 20010904//EN"
 "http://www.w3.org/TR/2001/REC-SVG-20010904/DTD/svg10.dtd">
<svg version="1.0" xmlns="http://www.w3.org/2000/svg"
 width="512.000000pt" height="512.000000pt" viewBox="0 0 512.000000 512.000000"
 preserveAspectRatio="xMidYMid meet">
<metadata>
Created by potrace 1.14, written by Peter Selinger 2001-2017
</metadata>
<g transform="translate(0.000000,512.000000) scale(0.100000,-0.100000)"
fill="#000000" stroke="none">
<path d="M2315 5109 c-798 -82 -1502 -519 -1927 -1196 -604 -960 -491 -2230
272 -3065 415 -454 931 -729 1550 -825 161 -25 539 -25 700 0 488 76 921 266
1274 559 508 423 824 995 918 1663 16 119 17 514 0 630 -58 403 -201 788 -410
1100 -411 613 -1033 1006 -1772 1120 -126 19 -477 28 -605 14z m565 -1703 c0
-6 -399 -1657 -406 -1678 -5 -16 -20 -18 -121 -18 -114 0 -115 0 -110 23 3 12
94 394 203 850 l198 827 118 0 c65 0 118 -2 118 -4z m-750 -393 l0 -158 -390
-149 c-215 -82 -388 -151 -385 -154 2 -2 177 -73 387 -157 l383 -151 3 -161 2
-160 -565 245 -565 246 0 137 0 136 553 241 c303 132 558 241 565 241 9 1 12
-37 12 -156z m1443 -90 l547 -237 0 -136 0 -137 -347 -151 c-192 -83 -446
-194 -566 -246 l-217 -95 2 161 3 161 380 149 c209 82 383 152 387 156 4 4
-167 75 -380 157 l-387 151 -3 158 c-2 148 -1 158 15 152 10 -4 264 -113 566
-243z"/>
</g>
</svg>
