<?xml version="1.0" standalone="no"?>
<!DOCTYPE svg PUBLIC "-//W3C//DTD SVG 20010904//EN"
 "http://www.w3.org/TR/2001/REC-SVG-20010904/DTD/svg10.dtd">
<svg version="1.0" xmlns="http://www.w3.org/2000/svg"
 width="512.000000pt" height="512.000000pt" viewBox="0 0 512.000000 512.000000"
 preserveAspectRatio="xMidYMid meet">
<metadata>
Created by potrace 1.14, written by Peter Selinger 2001-2017
</metadata>
<g transform="translate(0.000000,512.000000) scale(0.100000,-0.100000)"
fill="#000000" stroke="none">
<path d="M2320 5110 c-502 -52 -982 -248 -1365 -557 -288 -232 -517 -518 -684
-854 -124 -249 -204 -502 -247 -784 -26 -169 -26 -541 0 -710 71 -465 260
-899 543 -1250 232 -288 518 -517 854 -684 249 -124 502 -204 784 -247 169
-26 541 -26 710 0 465 71 899 260 1250 543 288 232 517 518 684 854 124 249
204 502 247 784 26 169 26 541 0 710 -71 465 -260 899 -543 1250 -232 288
-518 517 -854 684 -246 123 -506 205 -779 246 -124 19 -478 28 -600 15z m-375
-1645 c123 -18 219 -47 305 -90 83 -42 152 -93 148 -108 -2 -7 -29 -63 -61
-126 l-58 -114 -32 30 c-136 126 -275 181 -478 190 -134 6 -237 -14 -349 -69
-97 -47 -205 -159 -258 -268 -61 -124 -76 -192 -76 -340 1 -225 52 -359 194
-501 96 -96 176 -144 305 -181 140 -39 395 -29 528 21 l27 11 0 195 0 195
-192 2 -193 3 0 110 0 110 323 3 322 2 0 -373 0 -374 -89 -42 c-212 -98 -484
-134 -734 -96 -381 57 -661 295 -753 640 -15 57 -19 105 -18 250 0 166 2 187
27 268 79 258 251 456 491 568 181 84 411 115 621 84z m1617 -658 c274 -353
504 -651 513 -662 14 -18 15 28 10 510 -3 292 -8 590 -11 663 l-6 132 131 0
131 0 0 -895 0 -895 -112 1 -113 0 -529 690 c-290 380 -530 688 -533 686 -2
-3 1 -274 6 -603 6 -330 11 -638 11 -686 l0 -88 -125 0 -124 0 -3 118 c-2 64
-2 467 0 895 l2 777 128 0 127 0 497 -643z"/>
</g>
</svg>
